<?xml version="1.0" encoding="UTF-8" standalone="no"?>
<svg
   version="1.1"
   id="Layer_1"
   x="0px"
   y="0px"
   width="100%"
   viewBox="0 0 784 1168"
   enable-background="new 0 0 784 1168"
   xml:space="preserve"
   sodipodi:docname="flogo.svg"
   inkscape:version="1.4.2 (f4327f4, 2025-05-13)"
   xmlns:inkscape="http://www.inkscape.org/namespaces/inkscape"
   xmlns:sodipodi="http://sodipodi.sourceforge.net/DTD/sodipodi-0.dtd"
   xmlns="http://www.w3.org/2000/svg"
   xmlns:svg="http://www.w3.org/2000/svg"><defs
   id="defs10" /><sodipodi:namedview
   id="namedview10"
   pagecolor="#505050"
   bordercolor="#eeeeee"
   borderopacity="1"
   inkscape:showpageshadow="0"
   inkscape:pageopacity="0"
   inkscape:pagecheckerboard="0"
   inkscape:deskcolor="#505050"
   inkscape:zoom="1.8030822"
   inkscape:cx="422.33238"
   inkscape:cy="584.2773"
   inkscape:window-width="2160"
   inkscape:window-height="1334"
   inkscape:window-x="-11"
   inkscape:window-y="-11"
   inkscape:window-maximized="1"
   inkscape:current-layer="Layer_1" />
<path
   fill="#000000"
   opacity="1.000000"
   stroke="none"
   d=" M280.000000,1169.000000   C186.666672,1169.000000 93.833336,1169.000000 1.000000,1169.000000   C1.000000,779.666687 1.000000,390.333344 1.000000,1.000000   C262.333344,1.000000 523.666687,1.000000 785.000000,1.000000   C785.000000,390.333344 785.000000,779.666687 785.000000,1169.000000   C616.833313,1169.000000 448.666656,1169.000000 280.000000,1169.000000  M506.944550,401.482422   C514.150024,387.200836 521.355469,372.919281 528.560974,358.637695   C528.147217,358.414459 527.733521,358.191223 527.319824,357.967987   C526.649841,358.851898 525.879883,359.677429 525.324341,360.628235   C506.532715,392.789062 487.640320,424.891907 469.019867,457.151672   C448.752411,492.264862 428.792114,527.555176 408.604187,562.714417   C380.173553,612.229126 351.456604,661.580688 323.252716,711.223877   C306.591278,740.550537 290.664703,770.295105 274.456665,799.878479   C271.988739,804.383057 269.787354,809.033752 267.462708,813.616882   C267.848755,813.822205 268.234833,814.027466 268.620880,814.232788   C280.060486,796.072144 291.605621,777.976379 302.842010,759.690857   C304.855927,756.413513 306.934967,755.306091 310.703186,755.314880   C358.354309,755.426208 406.005859,755.364014 453.657288,755.346619   C458.717285,755.344788 463.777313,755.346375 469.048828,755.346375   C456.808777,733.465576 444.885010,712.261475 433.123322,690.967834   C431.818756,688.606018 430.496246,687.653259 427.790497,687.827637   C423.714722,688.090393 419.609528,687.896118 414.581604,687.896118   C420.833954,676.909607 426.548187,666.868774 431.748505,657.730835   C439.724396,669.939331 446.611267,682.940613 455.773315,694.068665   C490.769684,736.574707 536.745117,755.751404 591.344177,755.599854   C629.996887,755.492554 668.650208,755.561646 707.303223,755.552185   C709.362366,755.551636 711.421448,755.552124 713.990479,755.552124   C712.912842,753.582947 712.147583,752.154724 711.355469,750.741638   C700.350586,731.110168 689.244263,711.534363 678.435486,691.795532   C676.735779,688.691467 674.901184,687.808167 671.566895,687.791382   C640.093018,687.632751 608.600708,687.885742 577.153381,686.833679   C555.406555,686.106140 536.323425,677.237427 520.137451,662.705017   C487.003296,632.955872 478.653748,586.729553 495.557098,545.959229   C511.510040,507.481262 544.154785,485.988556 585.798584,485.946442   C614.458435,485.917450 643.118408,485.938202 671.778198,485.994843   C674.373535,485.999969 676.196777,485.752350 677.709534,482.975769   C685.539673,468.603912 693.694946,454.409180 701.732666,440.150360   C705.827332,432.886505 709.913330,425.617737 714.109070,418.163177   C694.284485,418.163177 674.956848,417.950104 655.635681,418.212128   C625.182129,418.625153 594.679688,418.453186 564.298523,420.238861   C539.693726,421.684998 516.942261,430.614777 495.992737,443.684418   C490.329712,447.217377 484.971497,451.238953 479.473358,455.036255   C479.149109,454.780396 478.824860,454.524536 478.500610,454.268677   C487.838013,436.874878 497.175446,419.481049 506.944550,401.482422  M351.050415,468.535126   C350.936188,468.844238 350.862640,469.176483 350.701874,469.459137   C323.287659,517.656921 295.868378,565.851929 268.443451,614.043762   C267.034760,616.519043 265.575348,618.965454 264.148956,621.409241   C245.212738,588.038940 226.587738,555.212219 207.958008,522.388123   C188.924545,488.852722 169.871704,455.328247 150.878662,421.769958   C149.380692,419.123230 147.784500,417.909149 144.368942,417.950928   C121.711891,418.228333 99.050476,418.149109 76.390480,418.184814   C73.978584,418.188599 71.566681,418.185333 68.098923,418.185333   C133.658676,533.152954 198.704407,647.219116 264.107635,761.912231   C329.651733,647.316040 395.034271,533.002319 460.793274,418.030426   C433.908417,418.030426 408.114777,417.987427 382.322540,418.156189   C381.020111,418.164734 379.262604,419.729279 378.504791,421.028748   C369.414124,436.616852 360.472473,452.291901 351.050415,468.535126  z"
   id="path1"
   style="fill:none" />
<path
   fill="#F5F6F6"
   opacity="1.000000"
   stroke="none"
   d=" M506.728699,401.784851   C497.175446,419.481049 487.838013,436.874878 478.500610,454.268677   C478.824860,454.524536 479.149109,454.780396 479.473358,455.036255   C484.971497,451.238953 490.329712,447.217377 495.992737,443.684418   C516.942261,430.614777 539.693726,421.684998 564.298523,420.238861   C594.679688,418.453186 625.182129,418.625153 655.635681,418.212128   C674.956848,417.950104 694.284485,418.163177 714.109070,418.163177   C709.913330,425.617737 705.827332,432.886505 701.732666,440.150360   C693.694946,454.409180 685.539673,468.603912 677.709534,482.975769   C676.196777,485.752350 674.373535,485.999969 671.778198,485.994843   C643.118408,485.938202 614.458435,485.917450 585.798584,485.946442   C544.154785,485.988556 511.510040,507.481262 495.557098,545.959229   C478.653748,586.729553 487.003296,632.955872 520.137451,662.705017   C536.323425,677.237427 555.406555,686.106140 577.153381,686.833679   C608.600708,687.885742 640.093018,687.632751 671.566895,687.791382   C674.901184,687.808167 676.735779,688.691467 678.435486,691.795532   C689.244263,711.534363 700.350586,731.110168 711.355469,750.741638   C712.147583,752.154724 712.912842,753.582947 713.990479,755.552124   C711.421448,755.552124 709.362366,755.551636 707.303223,755.552185   C668.650208,755.561646 629.996887,755.492554 591.344177,755.599854   C536.745117,755.751404 490.769684,736.574707 455.773315,694.068665   C446.611267,682.940613 439.724396,669.939331 431.748505,657.730835   C426.548187,666.868774 420.833954,676.909607 414.581604,687.896118   C419.609528,687.896118 423.714722,688.090393 427.790497,687.827637   C430.496246,687.653259 431.818756,688.606018 433.123322,690.967834   C444.885010,712.261475 456.808777,733.465576 469.048828,755.346375   C463.777313,755.346375 458.717285,755.344788 453.657288,755.346619   C406.005859,755.364014 358.354309,755.426208 310.703186,755.314880   C306.934967,755.306091 304.855927,756.413513 302.842010,759.690857   C291.605621,777.976379 280.060486,796.072144 268.620880,814.232788   C268.234833,814.027466 267.848755,813.822205 267.462708,813.616882   C269.787354,809.033752 271.988739,804.383057 274.456665,799.878479   C290.664703,770.295105 306.591278,740.550537 323.252716,711.223877   C351.456604,661.580688 380.173553,612.229126 408.604187,562.714417   C428.792114,527.555176 448.752411,492.264862 469.019867,457.151672   C487.640320,424.891907 506.532715,392.789062 525.324341,360.628235   C525.879883,359.677429 526.649841,358.851898 527.319824,357.967987   C527.733521,358.191223 528.147217,358.414459 528.560974,358.637695   C521.355469,372.919281 514.150024,387.200836 506.728699,401.784851  M479.208221,575.191223   C465.867554,598.414490 452.588623,621.673706 439.102783,644.812378   C437.537354,647.498291 436.766205,649.496948 438.479431,652.388367   C444.958191,663.322510 451.157898,674.422546 457.703186,685.315613   C458.502991,686.646729 460.757965,687.841248 462.346008,687.850647   C487.483673,687.999756 512.622559,687.944519 537.761169,687.936279   C540.231140,687.935486 542.701050,687.936157 546.078552,687.936157   C544.915344,686.574097 544.767334,686.239136 544.522095,686.136475   C519.867432,675.818115 501.855621,658.447876 490.441895,634.405273   C481.585846,615.750366 478.057587,596.064636 480.956116,574.861572   C480.844849,574.576355 480.733612,574.291077 480.622345,574.005859   C480.341492,574.263428 480.060608,574.520996 479.208221,575.191223  M527.169678,495.454956   C545.872620,483.914246 566.170166,478.546051 588.182312,478.802643   C614.506836,479.109528 640.838379,478.786591 667.165771,478.928589   C670.441101,478.946259 672.269287,477.996765 673.839355,475.143585   C680.541687,462.963989 687.463257,450.905060 694.299316,438.799011   C696.793640,434.381775 699.272583,429.955811 702.050964,425.013672   C699.583496,425.013672 697.799805,425.013519 696.016113,425.013672   C661.522095,425.016693 627.028076,425.051636 592.534119,425.009796   C574.347351,424.987762 556.351074,426.664886 538.949585,432.102875   C501.365631,443.847839 470.279724,464.013641 451.904388,500.379852   C446.462128,511.150482 439.461823,521.289307 435.255585,532.498291   C424.779663,560.415222 423.077728,589.408630 428.261597,618.730103   C429.499084,625.729736 431.714355,632.556458 433.839203,640.868225   C472.888702,572.572266 509.132385,504.559509 552.396790,440.632751   C543.475464,458.638977 534.554077,476.645233 525.151489,495.102936   C525.118164,495.674377 525.084900,496.245789 525.051575,496.817230   C525.551025,496.474701 526.050537,496.132141 527.169678,495.454956  M424.923065,694.872498   C417.697357,694.872498 410.471680,694.872498 402.393158,694.872498   C411.106812,679.741211 419.355743,665.621033 427.315582,651.339722   C428.326935,649.525208 428.584076,646.607483 427.908875,644.640930   C420.760590,623.820557 417.739929,602.436157 418.836761,580.495728   C419.242188,572.386597 420.278198,564.309021 421.118805,555.219360   C383.845184,620.083130 347.085999,684.051697 310.242798,748.166443   C359.276733,748.166443 407.833893,748.166443 456.958191,748.166443   C448.549866,733.242493 440.511566,718.848694 432.325378,704.539490   C430.405548,701.183716 427.985474,698.114075 424.923065,694.872498  M687.489807,748.546326   C691.999451,748.546326 696.509033,748.546326 701.945251,748.546326   C692.256897,731.312439 683.147156,715.398315 674.388428,699.293274   C672.538391,695.891418 670.592896,694.753357 666.742126,694.761597   C606.272278,694.890564 545.802124,694.841919 485.332001,694.834412   C479.112762,694.833618 472.893555,694.834290 465.788300,694.834290   C478.344025,709.376831 492.419250,720.218201 508.245117,728.973877   C534.043091,743.246643 561.888367,748.522461 591.045959,748.474915   C622.861633,748.422974 654.677490,748.498352 687.489807,748.546326  z"
   id="path2" />
<path
   fill="#F6F6F7"
   opacity="1.000000"
   stroke="none"
   d=" M351.271149,468.239685   C360.472473,452.291901 369.414124,436.616852 378.504791,421.028748   C379.262604,419.729279 381.020111,418.164734 382.322540,418.156189   C408.114777,417.987427 433.908417,418.030426 460.793274,418.030426   C395.034271,533.002319 329.651733,647.316040 264.107635,761.912231   C198.704407,647.219116 133.658676,533.152954 68.098923,418.185333   C71.566681,418.185333 73.978584,418.188599 76.390480,418.184814   C99.050476,418.149109 121.711891,418.228333 144.368942,417.950928   C147.784500,417.909149 149.380692,419.123230 150.878662,421.769958   C169.871704,455.328247 188.924545,488.852722 207.958008,522.388123   C226.587738,555.212219 245.212738,588.038940 264.148956,621.409241   C265.575348,618.965454 267.034760,616.519043 268.443451,614.043762   C295.868378,565.851929 323.287659,517.656921 350.701874,469.459137   C350.862640,469.176483 350.936188,468.844238 351.271149,468.239685  M273.597321,648.934265   C270.594727,644.241028 267.592133,639.547791 264.242096,634.311462   C256.454803,645.942139 249.062332,656.983154 241.669861,668.024170   C241.149017,667.085938 241.309036,666.525818 241.573334,666.020264   C247.404922,654.866943 253.157593,643.670593 259.158173,632.608765   C260.509247,630.118103 260.503113,628.358337 259.078888,625.890076   C243.520309,598.927002 228.088882,571.890503 212.645355,544.861145   C190.392105,505.913239 168.126282,466.972443 145.989502,427.958435   C144.602676,425.514313 143.093536,424.903961 140.526245,424.968292   C134.030441,425.130951 127.527962,425.029266 121.028152,425.029938   C107.762184,425.031311 94.496223,425.030365 80.200569,425.030365   C141.630920,532.744446 202.644333,639.727417 264.091797,747.471497   C325.765320,639.737244 386.998169,532.772644 448.277679,425.726624   C447.323181,425.294495 447.054138,425.066315 446.784760,425.065948   C426.785858,425.037231 406.786316,424.961548 386.789246,425.148712   C385.328247,425.162415 383.320648,426.767120 382.514832,428.174652   C344.604034,494.394409 306.782257,560.665161 269.085358,627.006897   C268.250153,628.476746 268.302917,631.173340 269.084137,632.720886   C273.709442,641.883728 278.716614,650.852905 283.482758,659.946289   C284.364655,661.628784 284.732300,663.580811 285.337311,665.408447   C285.050476,665.500610 284.763641,665.592834 284.476837,665.684998   C280.980896,660.306580 277.484955,654.928162 273.597321,648.934265  z"
   id="path3" />




<path
   fill="#010101"
   opacity="1.000000"
   stroke="none"
   d=" M526.330200,495.497375   C526.050537,496.132141 525.551025,496.474701 525.051575,496.817230   C525.084900,496.245789 525.118164,495.674377 525.392090,494.877197   C525.791992,494.836029 525.951172,495.020599 526.330200,495.497375  z"
   id="path8" />
<path
   fill="#020202"
   opacity="1.000000"
   stroke="none"
   d=" M480.021057,574.954041   C480.060608,574.520996 480.341492,574.263428 480.622375,574.005859   C480.733612,574.291077 480.844849,574.576355 480.865845,575.147888   C480.604553,575.332642 480.433502,575.231079 480.021057,574.954041  z"
   id="path9" />

</svg>
